<svg xmlns="http://www.w3.org/2000/svg" viewBox="0 0 900 200">
  <defs>
    <filter id="shadowC">
      <feDropShadow dx="1" dy="2" stdDeviation="3" flood-color="#333" flood-opacity="0.15"/>
    </filter>
  </defs>
  <rect width="900" height="200" rx="16" fill="none"/>

  <!-- === LEFT: XML Stack === -->

  <!-- Back doc -->
  <g transform="translate(120, 18)" filter="url(#shadowC)">
    <rect width="130" height="160" rx="5" fill="#f5f5f5" stroke="#bdbdbd" stroke-width="1"/>
  </g>

  <!-- Middle doc -->
  <g transform="translate(107, 25)" filter="url(#shadowC)">
    <rect width="130" height="160" rx="5" fill="#f5f5f5" stroke="#bdbdbd" stroke-width="1"/>
    <rect x="10" y="14" width="60" height="3" rx="1.5" fill="#bdbdbd" opacity="0.5"/>
    <rect x="10" y="22" width="90" height="2.5" rx="1" fill="#e0e0e0" opacity="0.5"/>
    <rect x="15" y="30" width="70" height="2.5" rx="1" fill="#e0e0e0" opacity="0.3"/>
  </g>

  <!-- Front doc -->
  <g transform="translate(94, 32)" filter="url(#shadowC)">
    <rect width="130" height="160" rx="5" fill="#fff" stroke="#757575" stroke-width="1.5"/>
    <!-- Header -->
    <rect x="0" y="0" width="130" height="26" rx="5" fill="#616161"/>
    <rect y="18" width="130" height="8" fill="#616161"/>
    <text x="14" y="17" font-family="Roboto Mono, monospace" font-size="9" fill="#fff" font-weight="bold">&lt;/&gt; XML</text>
    <!-- Code -->
    <text x="10" y="42" font-family="Roboto Mono, monospace" font-size="7.5" fill="#424242">&lt;<tspan fill="#616161">nfeProc</tspan>&gt;</text>
    <text x="16" y="54" font-family="Roboto Mono, monospace" font-size="7.5" fill="#424242" opacity="0.7">&lt;<tspan fill="#616161">NFe</tspan>&gt;</text>
    <text x="22" y="66" font-family="Roboto Mono, monospace" font-size="7.5" fill="#424242" opacity="0.5">&lt;<tspan fill="#616161">infNFe</tspan>&gt;</text>
    <text x="28" y="78" font-family="Roboto Mono, monospace" font-size="7.5" fill="#424242" opacity="0.35">&lt;<tspan fill="#616161">emit</tspan>/&gt;</text>
    <text x="28" y="90" font-family="Roboto Mono, monospace" font-size="7.5" fill="#424242" opacity="0.35">&lt;<tspan fill="#616161">det</tspan>/&gt;</text>
    <text x="22" y="102" font-family="Roboto Mono, monospace" font-size="7.5" fill="#424242" opacity="0.5">&lt;/<tspan fill="#616161">infNFe</tspan>&gt;</text>
    <text x="16" y="114" font-family="Roboto Mono, monospace" font-size="7.5" fill="#424242" opacity="0.7">&lt;/<tspan fill="#616161">NFe</tspan>&gt;</text>
    <text x="10" y="126" font-family="Roboto Mono, monospace" font-size="7.5" fill="#424242">&lt;/<tspan fill="#616161">nfeProc</tspan>&gt;</text>
    <!-- Types -->
    <g transform="translate(10, 136)">
      <rect x="0" y="0" width="33" height="14" rx="7" fill="#f5f5f5" stroke="#bdbdbd" stroke-width="0.5"/>
      <text x="16.5" y="10" font-family="Roboto, sans-serif" font-size="7" fill="#616161" text-anchor="middle">NF-e</text>
      <rect x="37" y="0" width="33" height="14" rx="7" fill="#f5f5f5" stroke="#bdbdbd" stroke-width="0.5"/>
      <text x="53.5" y="10" font-family="Roboto, sans-serif" font-size="7" fill="#616161" text-anchor="middle">CT-e</text>
      <rect x="74" y="0" width="40" height="14" rx="7" fill="#f5f5f5" stroke="#bdbdbd" stroke-width="0.5"/>
      <text x="94" y="10" font-family="Roboto, sans-serif" font-size="7" fill="#616161" text-anchor="middle">MDF-e</text>
    </g>
  </g>

  <!-- === CENTER: Arrow === -->
  <g transform="translate(310, 100)">
    <line x1="0" y1="10" x2="165" y2="10" stroke="#9e9e9e" stroke-width="1.5" stroke-linecap="round"/>
    <polygon points="165,3 180,10 165,17" fill="#757575"/>
  </g>

  <!-- === RIGHT: PDF Stack === -->

  <!-- Back doc -->
  <g transform="translate(600, 18)" filter="url(#shadowC)">
    <rect width="130" height="160" rx="5" fill="#ffebee" stroke="#ef9a9a" stroke-width="1"/>
  </g>

  <!-- Middle doc -->
  <g transform="translate(587, 25)" filter="url(#shadowC)">
    <rect width="130" height="160" rx="5" fill="#ffebee" stroke="#ef9a9a" stroke-width="1"/>
    <rect x="10" y="14" width="50" height="3" rx="1.5" fill="#ef9a9a" opacity="0.5"/>
    <rect x="10" y="22" width="110" height="0.5" fill="#ef9a9a" opacity="0.3"/>
  </g>

  <!-- Front doc (DANFE) -->
  <g transform="translate(574, 32)" filter="url(#shadowC)">
    <rect width="130" height="160" rx="5" fill="#fff" stroke="#c62828" stroke-width="1.5"/>
    <!-- Header -->
    <rect x="0" y="0" width="130" height="26" rx="5" fill="#c62828"/>
    <rect y="18" width="130" height="8" fill="#c62828"/>
    <text x="14" y="17" font-family="Roboto Mono, monospace" font-size="9" fill="#fff" font-weight="bold">PDF</text>
    <!-- DANFE content -->
    <rect x="10" y="32" width="50" height="5" rx="1" fill="#e8e8e8"/>
    <rect x="64" y="32" width="56" height="5" rx="1" fill="#e8e8e8"/>
    <rect x="10" y="40" width="110" height="0.5" fill="#ccc"/>
    <rect x="10" y="44" width="52" height="4.5" rx="1" fill="#f5f5f5"/>
    <rect x="66" y="44" width="54" height="4.5" rx="1" fill="#f5f5f5"/>
    <rect x="10" y="52" width="52" height="4.5" rx="1" fill="#f5f5f5"/>
    <rect x="66" y="52" width="54" height="4.5" rx="1" fill="#f5f5f5"/>
    <rect x="10" y="60" width="110" height="0.5" fill="#ccc"/>
    <!-- Table -->
    <rect x="10" y="64" width="110" height="34" rx="1.5" fill="#fafafa" stroke="#e0e0e0" stroke-width="0.5"/>
    <rect x="14" y="68" width="25" height="2" rx="0.5" fill="#bdbdbd"/>
    <rect x="42" y="68" width="18" height="2" rx="0.5" fill="#bdbdbd"/>
    <rect x="63" y="68" width="18" height="2" rx="0.5" fill="#bdbdbd"/>
    <rect x="84" y="68" width="18" height="2" rx="0.5" fill="#bdbdbd"/>
    <rect x="105" y="68" width="10" height="2" rx="0.5" fill="#bdbdbd"/>
    <rect x="14" y="74" width="100" height="1.5" rx="0.5" fill="#e8e8e8"/>
    <rect x="14" y="79" width="100" height="1.5" rx="0.5" fill="#e8e8e8"/>
    <rect x="14" y="84" width="100" height="1.5" rx="0.5" fill="#e8e8e8"/>
    <rect x="14" y="89" width="70" height="1.5" rx="0.5" fill="#e8e8e8"/>
    <rect x="10" y="101" width="110" height="0.5" fill="#ccc"/>
    <!-- Barcode -->
    <g transform="translate(12, 106)">
      <rect x="0" y="0" width="1.2" height="14" fill="#424242"/>
      <rect x="2.5" y="0" width="0.8" height="14" fill="#424242"/>
      <rect x="4.5" y="0" width="1.5" height="14" fill="#424242"/>
      <rect x="7.2" y="0" width="0.8" height="14" fill="#424242"/>
      <rect x="9.2" y="0" width="1.2" height="14" fill="#424242"/>
      <rect x="11.5" y="0" width="1.5" height="14" fill="#424242"/>
      <rect x="14.2" y="0" width="0.8" height="14" fill="#424242"/>
      <rect x="16.2" y="0" width="1.2" height="14" fill="#424242"/>
      <rect x="18.5" y="0" width="0.8" height="14" fill="#424242"/>
      <rect x="20.5" y="0" width="1.5" height="14" fill="#424242"/>
      <rect x="23.2" y="0" width="0.8" height="14" fill="#424242"/>
      <rect x="25.2" y="0" width="1.2" height="14" fill="#424242"/>
      <rect x="27.5" y="0" width="1.5" height="14" fill="#424242"/>
      <rect x="30.2" y="0" width="0.8" height="14" fill="#424242"/>
      <rect x="32.2" y="0" width="1.2" height="14" fill="#424242"/>
      <rect x="34.5" y="0" width="0.8" height="14" fill="#424242"/>
      <rect x="36.5" y="0" width="1.5" height="14" fill="#424242"/>
      <rect x="39.2" y="0" width="1.2" height="14" fill="#424242"/>
      <rect x="41.5" y="0" width="0.8" height="14" fill="#424242"/>
      <rect x="43.5" y="0" width="1.5" height="14" fill="#424242"/>
    </g>
    <!-- QR -->
    <g transform="translate(96, 106)">
      <rect width="18" height="18" fill="#424242" rx="1"/>
      <rect x="2" y="2" width="5" height="5" fill="#fff"/>
      <rect x="11" y="2" width="5" height="5" fill="#fff"/>
      <rect x="2" y="11" width="5" height="5" fill="#fff"/>
      <rect x="7" y="7" width="3" height="3" fill="#fff"/>
    </g>
    <!-- Types -->
    <g transform="translate(5, 136)">
      <rect x="0" y="0" width="36" height="14" rx="7" fill="#ffebee" stroke="#ef9a9a" stroke-width="0.5"/>
      <text x="18" y="10" font-family="Roboto, sans-serif" font-size="6.5" fill="#c62828" text-anchor="middle">DANFE</text>
      <rect x="40" y="0" width="36" height="14" rx="7" fill="#ffebee" stroke="#ef9a9a" stroke-width="0.5"/>
      <text x="58" y="10" font-family="Roboto, sans-serif" font-size="6.5" fill="#c62828" text-anchor="middle">DACTE</text>
      <rect x="80" y="0" width="42" height="14" rx="7" fill="#ffebee" stroke="#ef9a9a" stroke-width="0.5"/>
      <text x="101" y="10" font-family="Roboto, sans-serif" font-size="6.5" fill="#c62828" text-anchor="middle">DAMDFE</text>
    </g>
  </g>
</svg>
